<svg xmlns="http://www.w3.org/2000/svg" viewBox="0 0 1505.42 358.53"><defs><style>.cls-1{fill:#fff;}</style></defs><g id="Camada_2" data-name="Camada 2"><g id="Camada_1-2" data-name="Camada 1"><path class="cls-1" d="M80.1,355.53l-5.7-41.1H36.3l-5.7,41.1H0l34.2-210H78.9l34.2,210Zm-39.6-69.6H70.2L55.2,180Z"/><path class="cls-1" d="M128.7,355.53v-210h33v180H216v30Z"/><path class="cls-1" d="M234.6,355.53v-180H200.1v-30h102v30H267.6v180Z"/><path class="cls-1" d="M375.6,355.53l-5.7-41.1H331.8l-5.7,41.1H295.5l34.2-210h44.7l34.2,210ZM336,285.93h29.7L350.7,180Z"/><path class="cls-1" d="M469.79,194.13c0-32.7,17.1-51.6,48.6-51.6s48.6,18.9,48.6,51.6v22.2h-31.2V192c0-12.9-5.4-19.5-16.5-19.5s-16.5,6.6-16.5,19.5v117.3c0,12.9,5.4,19.2,16.5,19.2s16.5-6.3,16.5-19.2v-30.6H567v28.2c0,32.7-17.1,51.6-48.6,51.6s-48.6-18.9-48.6-51.6Z"/><path class="cls-1" d="M584.69,195.33c0-33.6,17.7-52.8,50.1-52.8s50.1,19.2,50.1,52.8v110.4c0,33.6-17.7,52.8-50.1,52.8s-50.1-19.2-50.1-52.8Zm67.2-2.1q0-20.7-17.1-20.7t-17.1,20.7v114.6q0,20.7,17.1,20.7t17.1-20.7Z"/><path class="cls-1" d="M707.08,355.53v-210h40.81l33.3,125.7V145.53h29.4v210h-33.3l-40.8-153.3v153.3Z"/><path class="cls-1" d="M858.28,355.53l-31.8-210h33.3l21.9,165,21.9-165h30.3l-31.8,210Z"/><path class="cls-1" d="M949.78,355.53v-210h90v30h-57V231h45.3v30h-45.3v64.5h57v30Z"/><path class="cls-1" d="M1057.48,355.53v-210h48.9c33.9,0,48.9,15.6,48.9,48.3v12.9q0,32.85-21.6,41.4v.6c14.7,4.5,21.9,19.5,21.9,44.4V330c0,11.4,1.2,19.8,3.6,25.5h-33.6c-2.1-6-3-14.7-3-25.8v-38.4c0-19.2-5.4-25.8-20.7-25.8h-11.4v90Zm33-120h12c13.2,0,19.8-6.3,19.8-22.2v-16.2c0-14.4-5.7-21.6-16.8-21.6h-15Z"/><path class="cls-1" d="M1172.68,305.73v-12h31.2v14.4c0,13.5,5.7,20.4,17.1,20.4,11.7,0,17.4-6.9,17.4-21a41.31,41.31,0,0,0-6.3-22.8q-5.85-9.9-22.5-24.3c-13.5-12-23.1-22.8-28.8-32.7a67.23,67.23,0,0,1-8.1-33c0-33.3,17.1-52.2,49.2-52.2,31.5,0,48,18.9,48,52.8V204h-31.2v-10.8c0-13.8-5.4-20.7-16.5-20.7s-16.8,6.6-16.8,20.1a37.5,37.5,0,0,0,6.3,21c4.2,6.3,11.7,14.4,22.8,24,13.8,12,23.4,23.1,28.5,33,5.4,9.9,8.1,21.3,8.1,34.5,0,34.5-17.4,53.4-49.8,53.4C1189.18,358.53,1172.68,339.63,1172.68,305.73Z"/><path class="cls-1" d="M1359.57,355.53l-5.7-41.1h-38.1l-5.7,41.1h-30.6l34.2-210h44.7l34.2,210Zm-47.4-225.6-16.2-9.6c7.5-16.8,16.8-25.2,27.3-25.2,4.8,0,10.2,2.1,16.2,6.6,4.2,3,7.5,4.5,9.6,4.5,3.9,0,7.5-3.9,11.1-11.7l16.2,9.6c-7.5,16.8-16.8,25.2-27.3,25.2-4.8,0-10.2-2.1-16.2-6.6-4.2-3-7.5-4.5-9.6-4.5C1319.37,118.23,1315.47,122.13,1312.17,129.93Zm7.8,156h29.7l-15-105.9Z"/><path class="cls-1" d="M1405.17,195.33c0-33.6,17.7-52.8,50.1-52.8s50.1,19.2,50.1,52.8v110.4c0,33.6-17.7,52.8-50.1,52.8s-50.1-19.2-50.1-52.8Zm67.2-2.1q0-20.7-17.1-20.7t-17.1,20.7v114.6q0,20.7,17.1,20.7t17.1-20.7Z"/><path class="cls-1" d="M2.51,51.12V.72H14.18C22,.72,26,4.9,26,13.18v5c0,8.28-4,12.45-11.81,12.45H10.43V51.12ZM10.43,23.4h3.75c2.59,0,3.89-1.29,3.89-4.75v-6c0-3.45-1.3-4.75-3.89-4.75H10.43Z"/><path class="cls-1" d="M51.26,12.67C51.26,4.61,55.51,0,63.28,0s12,4.61,12,12.67v26.5c0,8.07-4.25,12.67-12,12.67s-12-4.6-12-12.67Zm16.13-.5q0-5-4.11-5t-4.1,5v27.5c0,3.32,1.37,5,4.1,5s4.11-1.65,4.11-5Z"/><path class="cls-1" d="M105.47,51.12,100.36.72H108l3.6,39.46L115.41.72h8.64l3.82,39.46L131.47.72h6.84l-5.11,50.4h-9.87l-3.67-34.63L116,51.12Z"/><path class="cls-1" d="M163.94,51.12V.72h21.6v7.2H171.86V21.24h10.87v7.2H171.86V43.92h13.68v7.2Z"/><path class="cls-1" d="M211.38,51.12V.72h11.74c8.14,0,11.74,3.74,11.74,11.59v3.1q0,7.89-5.19,9.94v.14c3.53,1.08,5.26,4.68,5.26,10.66V45a16.57,16.57,0,0,0,.86,6.12h-8.06a20,20,0,0,1-.72-6.19V35.71c0-4.6-1.3-6.19-5-6.19H219.3v21.6Zm7.92-28.8h2.88c3.17,0,4.76-1.51,4.76-5.33V13.1c0-3.45-1.37-5.18-4-5.18h-3.6Z"/><path class="cls-1" d="M262,51.12V.72h21.6v7.2H269.92V21.24h10.87v7.2H269.92V43.92H283.6v7.2Z"/><path class="cls-1" d="M309.45,51.12V.72h12.09c7.85,0,11.81,4.18,11.81,12.46V38.67c0,8.28-4,12.45-11.81,12.45Zm7.92-7.2h4c2.66,0,4-1.65,4-4.89V12.82c0-3.24-1.37-4.9-4-4.9h-4Z"/><path class="cls-1" d="M393.4,51.12V.72h12c8.14,0,11.74,3.74,11.74,11.59v2c0,5.18-1.73,8.5-5.11,9.86v.15c4,1.37,5.9,4.82,5.9,10.51v4.32c0,7.78-4.18,11.95-12,11.95Zm7.92-29.88h3.1c3.16,0,4.75-1.51,4.75-5.33V13.1c0-3.45-1.37-5.18-4-5.18h-3.81Zm0,22.68h4.53c2.81,0,4.11-1.29,4.11-5v-4.4c0-4.61-1.44-6.12-5.11-6.12h-3.53Z"/><path class="cls-1" d="M450.21,51.12V29.67L440.63.72h8.42l5.48,18.79L460,.72h7.7l-9.57,29V51.12Z"/><path class="cls-1" d="M524.58,39.17V36.29h7.49v3.46c0,3.24,1.37,4.89,4.1,4.89s4.18-1.65,4.18-5a9.88,9.88,0,0,0-1.51-5.47,26.7,26.7,0,0,0-5.4-5.83,33.8,33.8,0,0,1-6.92-7.85,16.21,16.21,0,0,1-1.94-7.92c0-8,4.1-12.53,11.81-12.53s11.52,4.54,11.52,12.67v2.09h-7.49V12.17c0-3.31-1.29-5-4-5s-4,1.58-4,4.82a9,9,0,0,0,1.51,5.05,31.85,31.85,0,0,0,5.47,5.76,28.7,28.7,0,0,1,6.84,7.92,16.89,16.89,0,0,1,2,8.28c0,8.28-4.18,12.81-12,12.81S524.58,47.31,524.58,39.17Z"/><path class="cls-1" d="M573.68,12.38C573.68,4.54,577.79,0,585.35,0S597,4.54,597,12.38v5.33h-7.49V11.88c0-3.1-1.29-4.68-4-4.68s-4,1.58-4,4.68V40c0,3.09,1.3,4.6,4,4.6s4-1.51,4-4.6V32.69H597v6.77c0,7.85-4.1,12.38-11.66,12.38s-11.67-4.53-11.67-12.38Z"/><path class="cls-1" d="M640.36,51.12,639,41.26h-9.15l-1.36,9.86h-7.35L629.34.72h10.73l8.21,50.4Zm-9.51-16.7H638L634.38,9Z"/><path class="cls-1" d="M673.62,51.12V.72h21v7.2h-13V22h10.22v7.2H681.54v22Z"/><path class="cls-1" d="M720,51.12V.72h21.6v7.2H727.91V21.24h10.87v7.2H727.91V43.92h13.68v7.2Z"/><path class="cls-1" d="M767.43,51.12V.72h7.92v43.2h13v7.2Z"/><path class="cls-1" d="M813.8,51.12V.72h7.92v50.4Z"/><rect class="cls-1" x="857.42" y="23.83" width="648" height="6"/></g></g></svg>