<svg xmlns="http://www.w3.org/2000/svg" viewBox="0 0 189.14 51.84"><defs><style>.cls-1{fill:#fff;}</style></defs><g id="Camada_2" data-name="Camada 2"><g id="Camada_1-2" data-name="Camada 1"><path class="cls-1" d="M0,39.17V37.55a1.26,1.26,0,0,1,1.26-1.26h5a1.27,1.27,0,0,1,1.26,1.26v2.2c0,3.24,1.37,4.89,4.1,4.89s4.18-1.65,4.18-5a9.92,9.92,0,0,0-1.51-5.47,26.7,26.7,0,0,0-5.4-5.83,33.8,33.8,0,0,1-6.92-7.85A16.21,16.21,0,0,1,0,12.53C0,4.54,4.1,0,11.81,0c7.56,0,11.52,4.54,11.52,12.67v.83a1.25,1.25,0,0,1-1.26,1.26h-5a1.26,1.26,0,0,1-1.26-1.26V12.17c0-3.31-1.29-5-4-5s-4,1.58-4,4.82a9,9,0,0,0,1.51,5.05,31.85,31.85,0,0,0,5.47,5.76,28.7,28.7,0,0,1,6.84,7.92A16.89,16.89,0,0,1,23.62,39c0,8.28-4.18,12.81-12,12.81S0,47.31,0,39.17Z"/><path class="cls-1" d="M31.1,12.39C31.1,4.54,35.21,0,42.77,0S54.43,4.54,54.43,12.39v4.06a1.25,1.25,0,0,1-1.26,1.26h-5a1.26,1.26,0,0,1-1.26-1.26V11.88c0-3.1-1.29-4.68-4-4.68s-4,1.58-4,4.68V40c0,3.09,1.3,4.6,4,4.6s4-1.51,4-4.6V34a1.27,1.27,0,0,1,1.26-1.26h5A1.26,1.26,0,0,1,54.43,34v5.51c0,7.85-4.1,12.38-11.66,12.38S31.1,47.31,31.1,39.46Z"/><path class="cls-1" d="M79.63,50l-1.07-7.69a1.26,1.26,0,0,0-1.25-1.09h-7a1.26,1.26,0,0,0-1.25,1.09L68.05,50a1.26,1.26,0,0,1-1.25,1.08H62a1.25,1.25,0,0,1-1.24-1.46l7.8-47.88A1.26,1.26,0,0,1,69.83.72h8.59a1.26,1.26,0,0,1,1.24,1.06l7.8,47.88a1.26,1.26,0,0,1-1.24,1.46H80.87A1.24,1.24,0,0,1,79.63,50ZM71.72,34.42H76A1.27,1.27,0,0,0,77.2,33L75.06,17.9a1.26,1.26,0,0,0-2.5,0L70.47,33A1.26,1.26,0,0,0,71.72,34.42Z"/><path class="cls-1" d="M95,49.86V2A1.25,1.25,0,0,1,96.3.72h18.43A1.25,1.25,0,0,1,116,2V6.66a1.25,1.25,0,0,1-1.26,1.26H104.22A1.26,1.26,0,0,0,103,9.18V20.7A1.25,1.25,0,0,0,104.22,22h7.7a1.26,1.26,0,0,1,1.26,1.26V27.9a1.25,1.25,0,0,1-1.26,1.26h-7.7A1.26,1.26,0,0,0,103,30.42V49.86a1.26,1.26,0,0,1-1.26,1.26H96.3A1.25,1.25,0,0,1,95,49.86Z"/><path class="cls-1" d="M123.41,49.86V2A1.25,1.25,0,0,1,124.67.72h19.08A1.26,1.26,0,0,1,145,2V6.66a1.26,1.26,0,0,1-1.26,1.26H132.59a1.26,1.26,0,0,0-1.26,1.26V20a1.25,1.25,0,0,0,1.26,1.26h8.35a1.26,1.26,0,0,1,1.26,1.26v4.68a1.25,1.25,0,0,1-1.26,1.26h-8.35a1.26,1.26,0,0,0-1.26,1.26v13a1.25,1.25,0,0,0,1.26,1.26h11.16A1.27,1.27,0,0,1,145,45.18v4.68a1.26,1.26,0,0,1-1.26,1.26H124.67A1.25,1.25,0,0,1,123.41,49.86Z"/><path class="cls-1" d="M152.85,49.86V2A1.26,1.26,0,0,1,154.11.72h5.4A1.25,1.25,0,0,1,160.77,2V42.66A1.26,1.26,0,0,0,162,43.92h10.52a1.27,1.27,0,0,1,1.26,1.26v4.68a1.26,1.26,0,0,1-1.26,1.26H154.11A1.26,1.26,0,0,1,152.85,49.86Z"/><path class="cls-1" d="M181.22,49.86V2A1.25,1.25,0,0,1,182.48.72h5.4A1.25,1.25,0,0,1,189.14,2V49.86a1.25,1.25,0,0,1-1.26,1.26h-5.4A1.25,1.25,0,0,1,181.22,49.86Z"/></g></g></svg>