<svg xmlns="http://www.w3.org/2000/svg" viewBox="0 0 1645.92 353.23"><defs><style>.cls-1{fill:#fff;}</style></defs><g id="Camada_2" data-name="Camada 2"><g id="Camada_1-2" data-name="Camada 1"><path class="cls-1" d="M418.87,110.56c-.86,7.19-6.72,10.57-13.43,9-6-1.45-9.53-7.93-8.32-14.19,1.38-7.21,2.25-14.51,3.35-21.77l-3-1.45c-7.5,10.15-15.41,20-22.32,30.56-3.62,5.52-7.66,8.57-13.81,6.34-5.95-2.16-9.3-6-7.25-13.58C361.59,77.79,368.6,50,375.8,22.28a60.76,60.76,0,0,1,1.67-6.16c1.87-5,4.91-8.88,10.85-6.67,5.31,2,9.22,5.26,7.39,12.14C392.23,34.67,389,47.83,385.79,61a41.37,41.37,0,0,0-.6,4.89c1.25-.3,2.22-.24,2.71-.7,5.25-4.79,10.71-9.67,18.41-6.14,9.13,4.18,13.83,12.25,14.24,21.81C421,90.71,420.05,100.72,418.87,110.56Z"/><path class="cls-1" d="M485.06,60.77c-12.57,4.86-25.75,8.15-39.17,12.28,3.65,11.6,10.77,9.64,20.87,8.41,2.82-.34,6-.78,8.48.16,1.73.65,3.35,3.5,3.58,5.53.16,1.34-2,3.69-3.57,4.34C469,94,462.62,96.66,456.06,98.21,442.37,101.46,428,84.89,424.3,72.42c-3.21-10.8,4.37-29.76,17.15-34.72,9.8-3.81,19.17-8.81,29.86-7.34,6.13.84,12.69,2.73,17.76,6.1C499.27,43.23,497.27,56.05,485.06,60.77Z"/><path class="cls-1" d="M579.83,15a205.66,205.66,0,0,1-12.66,25.87c-7.52,12.8-16.1,25-23.68,37.76-8.4,14.17-15.78,29-24.48,42.92-2.27,3.65-7.7,7-11.83,7.21-2.72.12-7.52-5.34-8.23-8.92-1.9-9.69-6.1-19.83,0-29.51,1.56-2.46,4.25-4.21,6.43-6.28,1.6,2.29,3.34,4.51,4.76,6.92.73,1.23.88,2.8,1.94,6.46l13.7-23.7c-18-9.77-13.3-26.4-13.28-41.26,0-8.2,1.48-16.5,3.17-24.57.64-3.05,3.58-7.67,5.77-7.84,3.15-.25,7.31,2.24,9.62,4.83,1.83,2.05,2.24,6,2,9.1-.66,10.94-1.92,21.85-2.81,32.78a43.21,43.21,0,0,0,.44,6.69l2.22.9c3.14-3.71,6.87-7.08,9.3-11.21Q552.83,25.2,562.43,6.75c2.76-5.33,6.63-7.17,11.72-5.15C580.08,4,582.13,9.35,579.83,15Z"/><path class="cls-1" d="M614.8,85.48c-1.94,15-8.76,23.19-17.79,29.83-1.47,1.08-3.38,1.53-5,2.43-4.12,2.33-9.17,6.48-12.49,1.33-1.62-2.51.65-9.18,3.16-12.42,8.08-10.44,14.63-21,12.38-35-.3-1.89,1.35-5.62,2.65-5.9,2.15-.46,5.89.45,7,2.08C608.94,74.24,612.4,81.17,614.8,85.48Z"/><path class="cls-1" d="M762.27,60.77c-12.57,4.86-25.75,8.15-39.17,12.28,3.65,11.6,10.77,9.64,20.87,8.41,2.82-.34,6-.78,8.48.16,1.72.65,3.35,3.5,3.58,5.53.16,1.34-2,3.69-3.57,4.34-6.28,2.55-12.63,5.17-19.2,6.72-13.69,3.25-28-13.32-31.75-25.79-3.21-10.8,4.37-29.76,17.14-34.72,9.81-3.81,19.18-8.81,29.87-7.34,6.12.84,12.69,2.73,17.76,6.1C776.48,43.23,774.48,56.05,762.27,60.77Z"/><path class="cls-1" d="M822.32,85c-4.2,3.73-8,8.28-12.78,10.91-17.16,9.41-25.3,6-30.28-11.23-3.21-11.17-.51-24.15.2-36.28.24-4.08,2.43-8.08,3.92-12.05,1.8-4.8,3.38-10.48,10.41-8.18,6,2,8.51,9.12,6.39,15.51-1.92,5.77-4.35,11.52-5.14,17.47-.9,6.66-.21,13.54-.21,21.76,14.88-8.45,22.26-19.87,27.3-33.24,1.57-4.17,2.87-8.89,5.77-12,1.88-2,6.61-2.27,9.73-1.66,1.67.32,3.33,4,3.84,6.46C845.37,61.25,835.07,73.72,822.32,85Z"/><path class="cls-1" d="M990.71,23.22c-.22,1.66-4.1,3.85-6.46,4-12.75.85-25.61,13.78-25.5,26.9-.36,9.78,6.66,16.48,12.67,23.45,10.15,11.76,10.26,17.39-2.49,25.82-7.87,5.2-16.84,9-25.73,12.31-6.41,2.38-11.47-1.71-14.1-7.38-2.24-4.83-.25-8.38,5.31-10a171.56,171.56,0,0,0,20-7c5.13-2.22,5.39-5.37,1.37-10A89.94,89.94,0,0,1,943.27,63c-8.15-16.19-.52-29.74,10.52-39.62,7.44-6.65,15.94-11.85,26.63-10.89,2.57.23,5.9.64,7.37,2.3C989.68,16.88,991.08,20.51,990.71,23.22Z"/><path class="cls-1" d="M1066.36,50.2c-.21,13.51-6,21.27-11.7,29a72.27,72.27,0,0,1-30,23.65c-12.85,5.53-25.63-3.51-28.33-19.14-2.3-13.35,1.62-24.89,9.67-35.19,6.91-8.84,13.84-17.52,25-21.83,12.82-4.92,23-2.45,29.91,9.51C1063.89,41.3,1065.29,47.34,1066.36,50.2Zm-17-.5c-2.18-2.19-6-8.08-7.81-7.53-16,4.77-28.41,23-28.35,38.38,0,5.41,2,8.4,7.75,5.56,3.77-1.88,7.79-3.81,10.73-6.71C1039.46,71.76,1046.54,63.48,1049.36,49.7Z"/><path class="cls-1" d="M1115.87,85c-4.21,3.73-8,8.28-12.78,10.91-17.17,9.41-25.31,6-30.28-11.23-3.22-11.17-.52-24.15.2-36.28.24-4.08,2.43-8.08,3.92-12.05,1.8-4.8,3.37-10.48,10.41-8.18,6,2,8.5,9.12,6.38,15.51-1.92,5.77-4.34,11.52-5.14,17.47-.89,6.66-.21,13.54-.21,21.76,14.88-8.45,22.26-19.87,27.3-33.24,1.58-4.17,2.87-8.89,5.77-12,1.88-2,6.61-2.27,9.74-1.66,1.67.32,3.33,4,3.84,6.46C1138.92,61.25,1128.62,73.72,1115.87,85Z"/><path class="cls-1" d="M1292.46,50.2c-.21,13.51-6,21.27-11.7,29a72.33,72.33,0,0,1-30,23.65c-12.85,5.53-25.64-3.51-28.33-19.14-2.31-13.35,1.61-24.89,9.67-35.19,6.91-8.84,13.84-17.52,25-21.83,12.81-4.92,23-2.45,29.9,9.51C1290,41.3,1291.39,47.34,1292.46,50.2Zm-17-.5c-2.18-2.19-6-8.08-7.82-7.53-16,4.77-28.4,23-28.35,38.38,0,5.41,2.06,8.4,7.75,5.56,3.77-1.88,7.79-3.81,10.74-6.71C1265.56,71.76,1272.64,63.48,1275.46,49.7Z"/><path class="cls-1" d="M114.45,243.56c-13.26.95-24.42,2.56-35.55,2.33-12.7-.26-19.68-10.07-13.56-18.53,2.64-3.66,8.77-5.91,13.64-6.65,22.42-3.36,44.48-6.59,65.58-16.54,9-4.24,21.81-2,32.45-.13,3.61.63,7.74,8.91,8.08,13.93.22,3.24-5.67,7.39-9.49,10.24-2.58,1.92-6.32,2.28-10.62,3.7-2.55,33.49-5.1,67.41-7.73,101.32-.69,9-3,17.4-13.94,17.78-10.68.37-19.31-8.6-19.38-19.09-.12-19.38,0-38.75,0-59.28-7.05,5.55-14.86,11.12-22,17.44-24.8,21.87-61.29,24.28-82.91,7C5.18,286.13-1.5,271.79.28,252.94c3.85-40.63,25.43-72.08,50.83-101.38a255,255,0,0,1,40.73-37.87c14.65-10.81,22.21-8.17,37.31,9.88-4.22,2.78-8.65,6.06-13.41,8.77-46.11,26.23-69.15,69.45-84.15,117.54-2.66,8.54,1.84,22.27,7.93,29.44,3.6,4.23,17.68,2.59,25.53-.4C83.61,271.85,99.81,260.43,114.45,243.56Z"/><path class="cls-1" d="M255.52,288.07c-6.64,5.88-12.58,13.07-20.18,17.23-27.1,14.85-40,9.51-47.81-17.75-5.07-17.63-.81-38.12.32-57.27.38-6.45,3.83-12.77,6.19-19,2.84-7.58,5.33-16.55,16.44-12.91,9.39,3.08,13.42,14.4,10.07,24.49-3,9.1-6.86,18.18-8.11,27.57-1.41,10.53-.33,21.38-.33,34.37,23.49-13.34,35.14-31.37,43.1-52.48,2.49-6.59,4.53-14,9.11-18.89,3-3.13,10.44-3.59,15.38-2.63,2.64.52,5.26,6.38,6.05,10.21C291.92,250.53,275.65,270.23,255.52,288.07Z"/><path class="cls-1" d="M385.8,190.49c-.35,2.61-6.48,6.07-10.21,6.32-20.13,1.35-40.43,21.77-40.26,42.49-.56,15.43,10.52,26,20,37,16,18.57,16.19,27.46-3.93,40.76-12.43,8.22-26.59,14.23-40.63,19.45-10.13,3.76-18.12-2.71-22.26-11.66-3.53-7.62-.4-13.23,8.39-15.78a267.86,267.86,0,0,0,31.63-11c8.1-3.5,8.51-8.48,2.17-15.75a141.8,141.8,0,0,1-19.81-29.07c-12.88-25.57-.83-47,16.6-62.56,11.74-10.5,25.17-18.72,42-17.2,4.06.37,9.32,1,11.64,3.64C384.17,180.48,386.38,186.2,385.8,190.49Z"/><path class="cls-1" d="M478.08,293.9c5.08,25.74-17.82,46.83-50.63,43.67-12.81-1.23-25.67-4.79-31-16.24a69.62,69.62,0,0,1-5.69-35.22c1.23-11.43,8.11-22.25,11.4-30.56-9.55-3.61-19.06-5.11-25.76-10.26-8.2-6.31-4.27-15.78,6.32-17.87,2.89-.56,5.88-.69,8.83-1,21-1.94,36.66-11.36,46.91-30.65,3.95-7.43,11.82-12.88,18.24-18.88,6.58-6.13,13-4.6,19,1.35,6.64,6.57,3.83,11.74-1.6,17.41s-10.17,12.19-15.51,18.71c3.54,2.68,7,4.47,9.33,7.26,3.41,4.14,9.16,10,8.11,13.28-1.39,4.34-9,10.28-12.87,9.61-20.22-3.48-26.76,8.51-31.68,24.26-2.88,9.2-7.71,17.8-10.43,27-3.22,10.93,1.16,17.24,12.31,15.54,9.48-1.44,18.3-7.1,27.45-10.8C466.16,298.4,471.61,296.39,478.08,293.9Z"/><path class="cls-1" d="M589.8,279.91c-.11,5.79-4.5,11.48-6.94,17.22-6.82-3.19-13.89-6-20.33-9.78-2.48-1.47-3.52-5.34-4.93-7.63-12.15,6.64-22.26,13.31-33.24,17.9-14.33,6-27,2.65-37.33-9.8-9.53-11.53-10.23-24.95.59-36.66,14.62-15.84,30.1-31.18,51.56-37.39,8.71-2.52,18.35-4.05,27.27-3.11,16.64,1.75,20.86,8.23,21.28,25C588.1,250.42,590.1,265.18,589.8,279.91Z"/><path class="cls-1" d="M692.49,202.25c-2.35,10.92-4.54,22.81-10.47,31.87-17.27,26.39-35.58,52.22-55.09,77-11.4,14.48-26.91,11.64-31.26-6.17-4.52-18.51-4.77-38.21-5.52-57.44-.46-11.74,2-23.57,2.53-35.38.44-9.29,2.86-18.62,13.13-18.13,9.46.46,15.55,8.78,15.52,18.78,0,9.68-2,19.33-2.49,29-.44,7.87-.09,15.8-.09,23.71l3.43,1.56C633,249,644.34,231.14,654.6,212.7c5.69-10.22,11.07-19.72,24-21.75C687.69,189.51,694.87,191.16,692.49,202.25Z"/><path class="cls-1" d="M804.64,233.09c-.33,21.33-9.52,33.58-18.47,45.73a114.16,114.16,0,0,1-47.42,37.35c-20.29,8.74-40.47-5.54-44.73-30.22-3.64-21.08,2.55-39.29,15.27-55.56,10.91-13.95,21.85-27.67,39.55-34.47,20.24-7.78,36.31-3.87,47.22,15C800.74,219,803,228.57,804.64,233.09Zm-26.84-.79c-3.45-3.46-9.41-12.76-12.34-11.89-25.25,7.53-44.85,36.34-44.76,60.61,0,8.52,3.24,13.25,12.23,8.77,6-3,12.3-6,17-10.59C762.17,267.13,773.34,254.05,777.8,232.3Z"/><path class="cls-1" d="M996.31,160.26c-31.17,11.76-40,45.62-17.82,73.43,10,12.6,20.29,25.06,30.13,37.81,12.33,16,9.84,28.75-8.81,37.18-16.62,7.51-34.07,13.37-51.53,18.71-8.45,2.59-18.24.94-21.71-8.53-2.1-5.75-.78-13.29.81-19.57.53-2.06,6.83-4,10.3-3.75,17.84,1.4,31.65-7.06,46-15-13-17.79-25.7-33.12-36-49.92-14.72-24-13.89-49,.36-73.28,9.42-16,50.28-32.88,67.5-26,7.19,2.89,14.69,12.07,16.39,19.65,1.86,8.31-14.64,19.31-24,17.5C1004.1,167.85,1001,163.8,996.31,160.26Z"/><path class="cls-1" d="M1117.87,230.4c-17.24,7.91-32,18.67-43,34.15-2,2.78-3.8,6.58-3.51,9.7.14,1.47,5.45,2.51,8.47,3.63,9.83,3.63,19.68,7.21,29.53,10.81q.06,3.33.1,6.66c-9.79,3.57-19.89,10.67-29.31,9.85A80.49,80.49,0,0,1,1043,291.83c-13.57-9.33-14-26.49-3-38.41,12.6-13.68,25.59-27.13,39.58-39.34,13.42-11.71,31.42-10.76,40.94-.14C1126.78,220.87,1125.46,226.92,1117.87,230.4Z"/><path class="cls-1" d="M1234.79,279.91c-.12,5.79-4.5,11.48-7,17.22-6.81-3.19-13.88-6-20.33-9.78-2.47-1.47-3.51-5.34-4.92-7.63-12.15,6.64-22.26,13.31-33.24,17.9-14.33,6-27,2.65-37.33-9.8-9.53-11.53-10.23-24.95.58-36.66,14.62-15.84,30.11-31.18,51.57-37.39,8.7-2.52,18.35-4.05,27.26-3.11,16.64,1.75,20.87,8.23,21.29,25C1233.09,250.42,1235.08,265.18,1234.79,279.91Z"/><path class="cls-1" d="M1324.48,227.2l-9,18.33c6.49,1.05,11.44,1.12,15.81,2.76,4,1.5,8.28,4.07,10.61,7.43,1,1.42-1.82,7.55-4.35,9-9.54,5.46-19.67,9.89-33.77,16.73-1,6.88-3.39,18.73-4.25,30.68-.69,9.51-.19,18.31-13.62,18.07-10.73-.2-19.57-7.37-19.7-18.55-.11-10.46,1.32-20.93,2-29.87-9.7-3.16-19.94-4.12-27-9.36-10.18-7.55-7.07-18.76,5.36-18.88,25-.22,36.89-13.22,47-34.47,6.46-13.64,19.26-25.71,32-34.56,13.9-9.7,29.52.2,30,17.42C1356.25,226.17,1348.12,235,1324.48,227.2Z"/><path class="cls-1" d="M1452.78,249.77c-19.85,7.67-40.67,12.87-61.86,19.39,5.77,18.33,17,15.22,33,13.29,4.45-.54,9.44-1.24,13.38.25,2.73,1,5.3,5.53,5.67,8.74.24,2.1-3.11,5.81-5.64,6.84-9.92,4-19.94,8.16-30.31,10.62-21.62,5.12-44.29-21-50.14-40.73-5.07-17.05,6.89-47,27.07-54.82,15.48-6,30.27-13.91,47.15-11.59,9.68,1.33,20,4.31,28,9.63C1475.21,222.09,1472.05,242.32,1452.78,249.77Z"/><path class="cls-1" d="M1510.63,289.41c-.71,1.79-.09,4.12-.09,7.33,5.16,0,9.79-.2,14.41,0,8.76.47,17.52,1.79,18.56,12.84,1.12,11.84-9,15.76-16.93,16.84-12.63,1.73-25.11,1.66-36.38,9.27-2.25,1.52-8.7-.88-11.72-3.32-5.86-4.73-11.3-10.12-7.59-19.45,11.17-28,21.58-56.36,32.88-84.33,5.82-14.42,12.58-28.5,19.6-42.38,2.62-5.2,3.21-14.32,13.52-10.75,10.81,3.76,14.49,10.86,10.53,21.54-4.54,12.22-9.31,24.36-14.17,36.46C1525.77,252.15,1518.06,270.72,1510.63,289.41Z"/><path class="cls-1" d="M1609.31,244.33c-7.39,23.94-14.78,47.89-21.71,72-2.4,8.32-3,17.18-5.27,25.54-2.11,7.65-8,14.06-15.74,10.27-6.3-3.07-10.54-10.61-15.24-16.52-1-1.31-.15-4.14-.15-6.26l-2-.57c6.59-22,13.07-44,19.83-66,3.07-10,7.16-19.65,9.89-29.7,2.35-8.61,4.82-17.12,15.89-14.63C1608.43,221.54,1613.27,231.45,1609.31,244.33Zm36.61-68.48c-6,5.44-9.53,11.34-14.15,12.32-6.92,1.47-16.27,1.94-21.5-1.65-6.84-4.71-11.72-13.5-4.42-22.94,6.47-8.38,14-6.69,21.3-2.1C1633.13,165.24,1638.44,170.06,1645.92,175.85Z"/></g></g></svg>