<svg xmlns="http://www.w3.org/2000/svg" viewBox="0 0 860.58 133.33"><defs><style>.cls-1{fill:#fff;}</style></defs><g id="Camada_2" data-name="Camada 2"><g id="Camada_1-2" data-name="Camada 1"><path class="cls-1" d="M0,89.12l28.12-2.46q2.55,12.75,10.31,18.72t21,6q14,0,21-5.32T87.5,93.6a11,11,0,0,0-3-7.77q-3-3.21-10.4-5.59Q69,78.66,51,74.62,27.73,69.43,18.36,61.88,5.18,51.25,5.18,36a30.81,30.81,0,0,1,6.2-18.42Q17.58,9,29.25,4.48T57.42,0Q84.38,0,98,10.63T112.3,39L83.4,40.17q-1.86-9.93-8-14.29T57.13,21.53q-12.6,0-19.73,4.66a9.14,9.14,0,0,0-4.59,8q0,4.58,4.3,7.82,5.46,4.14,26.56,8.61t31.2,9.28A39,39,0,0,1,110.69,73q5.72,8.31,5.72,20.53a35.25,35.25,0,0,1-6.84,20.74q-6.84,9.66-19.34,14.37t-31.15,4.7q-27.15,0-41.7-11.29T0,89.12Z"/><path class="cls-1" d="M227.32,83.67l28,8Q248.9,112.76,233.92,123t-38,10.24q-28.51,0-46.88-17.53T130.64,67.76q0-32.16,18.46-50T197.64,0q26.27,0,42.67,14,9.76,8.26,14.65,23.74l-28.61,6.15A27,27,0,0,0,215.75,28q-8.06-5.8-19.58-5.8-15.91,0-25.83,10.28t-9.91,33.31q0,24.44,9.77,34.8T195.59,111a30.86,30.86,0,0,0,19.82-6.6Q223.71,97.82,227.32,83.67Z"/><path class="cls-1" d="M404.26,131H372.81l-12.5-29.26H303.09L291.27,131H260.61L316.37,2.2h30.56ZM351,80.07,331.31,32.26,312,80.07Z"/><path class="cls-1" d="M414.79,131V2.2h98.14V24H443.69v30.5h59.77v21.8H443.69V131Z"/><path class="cls-1" d="M531.76,131V2.2H637.91V24H560.66V52.56h71.88V74.27H560.66v35.07h80V131Z"/><path class="cls-1" d="M660.94,131V3.25h28.9V109.34h71.88V131Z"/><path class="cls-1" d="M776.45,131V2.2h28.9V131Z"/><path class="cls-1" d="M839.49,3A23.33,23.33,0,0,1,849.9,5.46a18.71,18.71,0,0,1,7.83,7,17.4,17.4,0,0,1,.06,19,19,19,0,0,1-7.8,7,23.13,23.13,0,0,1-21,0,19,19,0,0,1-7.79-7,17.37,17.37,0,0,1,0-19,18.71,18.71,0,0,1,7.83-7A23.39,23.39,0,0,1,839.49,3Zm0,3.71a18.78,18.78,0,0,0-8.34,2,15.16,15.16,0,0,0-6.29,5.62,14,14,0,0,0-.06,15.29,15.32,15.32,0,0,0,6.26,5.65,18.54,18.54,0,0,0,16.87,0,15.38,15.38,0,0,0,6.26-5.65,14,14,0,0,0,0-15.29,15.16,15.16,0,0,0-6.31-5.62A18.85,18.85,0,0,0,839.52,6.73ZM830,32.15V12h4.54c4.26,0,6.64,0,7.16.05a9.55,9.55,0,0,1,3.51.81,5.34,5.34,0,0,1,2.09,1.93,5.21,5.21,0,0,1,.84,2.88,5,5,0,0,1-1.58,3.73,7.47,7.47,0,0,1-4.45,1.92,6.21,6.21,0,0,1,1.57.76,10.17,10.17,0,0,1,1.51,1.55c.17.2.72,1,1.65,2.45l2.65,4.06h-5.62L842,28.88a13.81,13.81,0,0,0-3.14-4.15,5.41,5.41,0,0,0-3.14-.85h-1.18v8.27Zm4.54-11.44h1.84a23.94,23.94,0,0,0,4.89-.28,2.87,2.87,0,0,0,1.5-.95,2.37,2.37,0,0,0,.55-1.55,2.3,2.3,0,0,0-.54-1.5,3,3,0,0,0-1.52-.94,24.37,24.37,0,0,0-4.88-.28h-1.84Z"/></g></g></svg>