<svg xmlns="http://www.w3.org/2000/svg" viewBox="0 0 1054.84 243.26"><defs><style>.cls-1{fill:#ff4f11;}.cls-2{fill:#353a40;}</style></defs><g id="Camada_2" data-name="Camada 2"><g id="Camada_1-2" data-name="Camada 1"><path class="cls-1" d="M103.49,133.4,102,134.59A349.92,349.92,0,0,0,70,163.89a223.81,223.81,0,0,1-19.65,18.18c-4.11,3.27-8.4,6.31-13.46,7.91-7.14,2.26-14.35,2.64-21.37-.41-9.89-4.3-14.35-15-10.77-25.6,2.21-6.49,6.52-11.36,12-15.3s11.7-6.36,18-8.46c9.33-3.08,18.92-5.19,28.44-7.55,10.72-2.66,21.31-5.72,31.43-10.21,1.66-.73,3.27-1.59,4.9-2.39l0-.25c-2.47-.72-4.92-1.48-7.41-2.15q-23.16-6.28-46.33-12.54A172.55,172.55,0,0,1,22.3,97.38C16.87,95,11.74,92.22,7.58,87.91,2.64,82.8-.18,76.8,0,69.57a22,22,0,0,1,19.09-21c6.36-.8,12.13.88,17.67,3.79a107.48,107.48,0,0,1,18.6,13C67.12,75.15,78,85.84,88.76,96.66c4.61,4.63,9.31,9.13,15,12.4l1,.6c-.3-3.39-.55-6.58-.88-9.77-1.44-14-5.23-27.44-9-40.91-2.18-7.71-4.31-15.44-5.82-23.33-1.86-9.68.11-18.58,5.07-27A15.81,15.81,0,0,1,104.58.92a31.32,31.32,0,0,1,15,0C125.9,2.45,130,6.54,132.44,12.42c2.14,5.12,2.56,10.51,2.38,16-.37,10.71-2.56,21.14-5,31.51-2.9,12.2-5.93,24.37-8.8,36.57-.84,3.55-1.33,7.19-2,10.79a11.5,11.5,0,0,0,0,1.69,13.28,13.28,0,0,0,1.81-1c2.8-2.25,5.69-4.42,8.34-6.85,8.47-7.77,16.84-15.65,25.27-23.47A160.81,160.81,0,0,1,175.5,60.5c4.8-3.15,9.81-5.9,15.48-7.11,6.41-1.37,12.74-1.21,18.67,1.93,7,3.72,10.7,9.72,11,17.63s-2.84,14.36-8,20a17.61,17.61,0,0,1-5.83,3.86,103,103,0,0,1-16.82,5.75c-14.24,3.84-28.52,7.54-42.76,11.39a126.11,126.11,0,0,0-18.12,6.1,12.59,12.59,0,0,0-1.69.92c-.78.5-.84,1,0,1.46a19.59,19.59,0,0,0,4,1.91c7.26,2.24,14.51,4.52,21.83,6.54,11.65,3.2,23.38,6.13,35,9.32a48.77,48.77,0,0,1,23.07,13.3c3.71,3.91,6.6,8.38,7.25,13.84.9,7.43-.57,14.23-6.47,19.43-3.24,2.86-7.18,4.12-11.4,4.67-8.33,1.09-15.46-1.7-21.79-6.81-5.64-4.56-11.13-9.31-16.65-14-9-7.69-18.07-15.34-27-23.15-4.63-4.07-9-8.44-13.48-12.67l-1-1c.71,4.25,1.37,8.22,2,12.2,1.89,11.07,3.82,22.13,5.68,33.21,1.35,8,2.68,16.07,3.93,24.13A95.48,95.48,0,0,1,134,221.51c-.34,9-5.88,17.12-13.85,20.19-9.91,3.81-21.6.44-27.55-8a24.15,24.15,0,0,1-4.09-12.47c-.56-7.34.48-14.56,2.06-21.68s3.6-14.37,5.3-21.58c1-4.06,1.66-8.17,2.43-12.27,1.35-7.25,2.7-14.5,3.95-21.78.56-3.25.86-6.55,1.27-9.83A5.14,5.14,0,0,0,103.49,133.4Z"/><path class="cls-2" d="M249.49,144.13l28.13-2.46q2.53,12.75,10.3,18.72t20.95,6q14,0,21-5.32T337,148.61a11,11,0,0,0-3-7.78c-2-2.13-5.45-4-10.4-5.58q-5.07-1.58-23.14-5.62-23.25-5.19-32.62-12.75Q254.67,106.25,254.67,91a30.79,30.79,0,0,1,6.2-18.42q6.19-8.57,17.87-13.05T306.91,55q27,0,40.58,10.63T361.8,94l-28.91,1.14q-1.86-9.93-8-14.28t-18.31-4.35q-12.6,0-19.72,4.66a9.12,9.12,0,0,0-4.59,8q0,4.58,4.29,7.82,5.47,4.13,26.56,8.61t31.21,9.28A38.93,38.93,0,0,1,360.19,128q5.7,8.31,5.71,20.52a35.26,35.26,0,0,1-6.84,20.75q-6.82,9.66-19.33,14.37t-31.16,4.7q-27.15,0-41.69-11.3T249.49,144.13Z"/><path class="cls-2" d="M476.82,138.68l28,8q-6.43,21.09-21.43,31.33t-38,10.24q-28.51,0-46.87-17.53t-18.36-47.95q0-32.16,18.45-50T447.13,55q26.26,0,42.68,14,9.75,8.26,14.64,23.73l-28.61,6.16a26.94,26.94,0,0,0-10.6-15.82q-8.06-5.8-19.58-5.81-15.92,0-25.83,10.29t-9.91,33.31q0,24.43,9.77,34.8T445.08,166a30.86,30.86,0,0,0,19.82-6.59Q473.21,152.84,476.82,138.68Z"/><path class="cls-2" d="M653.75,186.05H622.31l-12.5-29.26H552.58l-11.82,29.26H510.1L565.86,57.21h30.57Zm-53.22-51L580.8,87.26l-19.33,47.82Z"/><path class="cls-2" d="M664.28,186.05V57.21h98.14V79H693.18v30.5H753v21.8H693.18v54.75Z"/><path class="cls-2" d="M781.25,186.05V57.21H887.4V79H810.16v28.57H882v21.71H810.16v35.06h80v21.71Z"/><path class="cls-2" d="M910.43,186.05V58.26h28.91V164.34h71.87v21.71Z"/><path class="cls-2" d="M1025.94,186.05V57.21h28.9V186.05Z"/></g></g></svg>