<svg xmlns="http://www.w3.org/2000/svg" viewBox="0 0 186.23 306.16"><defs><style>.cls-1{fill:#fff;}</style></defs><g id="Camada_2" data-name="Camada 2"><g id="Camada_1-2" data-name="Camada 1"><path class="cls-1" d="M55.7,177.87a1.84,1.84,0,0,0-1.79-2.25h-.72c-16.77,0-33.54,0-50.31,0a6.46,6.46,0,0,1-1.5-.21,1.84,1.84,0,0,1-1.21-2.55,5.27,5.27,0,0,1,.92-1.45q49.13-52,98.34-103.9L162.12,1.31c.26-.28.47-.69.79-.81.67-.26,1.54-.67,2.06-.43A2.17,2.17,0,0,1,165.6,2c-.67,3.29-1.48,6.55-2.26,9.82q-9.65,40.89-19.29,81.79c-2.12,9-4.27,18-6.39,27v.06a1.81,1.81,0,0,0,1.76,2.2h.08q21.82,0,43.65,0a3.14,3.14,0,0,1,.92,0q.47.14.93.3a1.83,1.83,0,0,1,1.11,2.4,2.69,2.69,0,0,1-.44.8c-2.37,2.9-4.87,5.71-7.33,8.54Q132.1,188.06,85.86,241.26,57.95,273.4,30,305.54a1.89,1.89,0,0,1-.37.32A1.82,1.82,0,0,1,26.84,304v0q9.66-42.54,19.44-85.05C49.4,205.37,52.5,191.82,55.7,177.87Z"/></g></g></svg>