<?xml version="1.0" encoding="utf-8"?>
<!-- Generator: Adobe Illustrator 25.0.0, SVG Export Plug-In . SVG Version: 6.00 Build 0)  -->
<svg version="1.1" id="Camada_1" xmlns="http://www.w3.org/2000/svg" xmlns:xlink="http://www.w3.org/1999/xlink" x="0px" y="0px"
	 viewBox="0 0 512 512" style="enable-background:new 0 0 512 512;" xml:space="preserve">
<style type="text/css">
	.st0{fill:#FFFFFF;}
	.st1{fill:#1D9BF0;}
</style>
<rect x="91" y="91" class="st0" width="330" height="330"/>
<path class="st1" d="M0,256C0,114.6,114.6,0,256,0s256,114.6,256,256S397.4,512,256,512S0,397.4,0,256z M371.8,211.8
	c10.9-10.9,10.9-28.7,0-39.6c-10.9-10.9-28.7-10.9-39.6,0L224,280.4l-44.2-44.2c-10.9-10.9-28.7-10.9-39.6,0
	c-10.9,10.9-10.9,28.7,0,39.6l64,64c10.9,10.9,28.7,10.9,39.6,0L371.8,211.8z"/>
</svg>
