<svg xmlns="http://www.w3.org/2000/svg" viewBox="0 0 577.45 74.82"><defs><style>.cls-1{fill:#212529;}.cls-2{fill:#6fbe95;}</style></defs><title>Ativo 2</title><g id="Camada_2" data-name="Camada 2"><g id="Camada_1-2" data-name="Camada 1"><path class="cls-1" d="M15.84,36v7.48H53.28v10.8H15.84v7.49H53.28V74.1H0V23.69H53.28V36Z"/><path class="cls-2" d="M81.72,48.89,55.58,23.69H76.83L92.74,39.53l16-15.84H129.9l-26.07,25.2L129.9,74.1H108.73l-16-15.85L76.83,74.1H55.58Z"/><path class="cls-2" d="M190.88,42.56c0,11.23-7.85,18.93-19.3,18.93H147.82V74.1H132V23.69h39.6C183,23.69,190.88,31.32,190.88,42.56Zm-15.84,0c0-5.47-4.11-5.47-7.06-5.47H147.82v11H168C170.93,48.1,175,48.1,175,42.56Z"/><path class="cls-1" d="M210.1,36v7.48h37.44v10.8H210.1v7.49h37.44V74.1H194.26V23.69h53.28V36Z"/><path class="cls-1" d="M300,59.41,309,74.1H290.31l-7.49-12.61H266.76V74.1H250.92V23.69h39.6c11.45,0,19.3,7.63,19.3,18.87C309.82,50.33,306.08,56.45,300,59.41ZM266.76,48.1h20.16c3,0,7.06,0,7.06-5.54s-4.1-5.47-7.06-5.47H266.76Z"/><path class="cls-1" d="M328.83,74.1H313V23.69h15.84Z"/><path class="cls-1" d="M349,36v7.48h37.44v10.8H349v7.49h37.44V74.1H333.15V23.69h53.28V36Z"/><path class="cls-1" d="M454.76,23.69V74.1h-21L405.65,39.82V74.1H389.81V23.69h21.1l28,34.13V23.69Z"/><path class="cls-1" d="M489.32,23c20.16,0,30.45,7.35,31.46,22.54H504.65c-.93-6.41-6-9.15-15.33-9.15-12.1,0-15.85,4.69-15.85,12.46s3.82,12.6,15.85,12.6c9.36,0,14.4-2.81,15.33-9.29h16.13c-1,15.27-11.3,22.69-31.46,22.69-22.18,0-31.69-8.86-31.69-26S467.14,23,489.32,23Z"/><path class="cls-1" d="M540,36v7.48h37.45v10.8H540v7.49h37.45V74.1H524.16V23.69h53.29V36Z"/><path class="cls-1" d="M11.06,0c6.73,0,10.16,2.45,10.49,7.51H16.18c-.31-2.13-2-3-5.12-3C7,4.46,5.78,6,5.78,8.62s1.28,4.2,5.28,4.2c3.13,0,4.81-.94,5.12-3.1h5.37c-.33,5.09-3.76,7.56-10.49,7.56C3.67,17.28.5,14.33.5,8.62S3.67,0,11.06,0Z"/><path class="cls-1" d="M39,12.14l3,4.9H35.81l-2.5-4.2H28V17H22.68V.24h13.2a6,6,0,0,1,6.43,6.29A5.94,5.94,0,0,1,39,12.14ZM28,8.38h6.72c1,0,2.35,0,2.35-1.85S35.67,4.7,34.68,4.7H28Z"/><path class="cls-1" d="M48.65,4.34v2.5H61.13v3.6H48.65v2.5H61.13V17H43.37V.24H61.13v4.1Z"/><path class="cls-1" d="M78,13.75H69.29L67.85,17H62L69.84.24H77.4L85.2,17H79.39ZM76.27,10l-2.64-6L71,10Z"/><path class="cls-1" d="M102.17,4.7H94.49V17H89.21V4.7H81.53V.24h20.64Z"/><path class="cls-1" d="M108.5,17h-5.28V.24h5.28Z"/><path class="cls-1" d="M131.59.24V17h-7L115.22,5.62V17h-5.28V.24h7l9.33,11.38V.24Z"/><path class="cls-1" d="M142.83,8H153.6V17h-3.38l-.31-2.52c-1.52,1.68-3.89,2.76-7.44,2.76-6.2,0-9.92-2.93-9.92-8.66S136.27,0,143.19,0c6.72,0,10.15,2.5,10.41,6.86h-5.37c-.24-1.05-1.44-2.4-5-2.4-4.66,0-5.36,2.31-5.36,4.32s.72,4.56,5.36,4.56c3.28,0,4.87-1.1,5-2.3h-5.4Z"/><path class="cls-2" d="M159.82,13.27V17h-4.95V13.27Z"/><path class="cls-1" d="M188.91,12.58V17H171.62V.24h5.28V12.58Z"/><path class="cls-1" d="M195.38,17H190.1V.24h5.28Z"/><path class="cls-1" d="M219.51.24,211.71,17h-7.57L196.32.24h5.86l5.73,13.1L213.65.24Z"/><path class="cls-1" d="M225.55,17h-5.28V.24h5.28Z"/><path class="cls-1" d="M248.64.24V17h-7L232.27,5.62V17H227V.24h7l9.34,11.38V.24Z"/><path class="cls-1" d="M259.87,8h10.78V17h-3.38L267,14.52c-1.51,1.68-3.89,2.76-7.44,2.76-6.19,0-9.91-2.93-9.91-8.66S253.32,0,260.23,0c6.72,0,10.16,2.5,10.42,6.86h-5.38c-.24-1.05-1.44-2.4-5-2.4-4.65,0-5.35,2.31-5.35,4.32s.72,4.56,5.35,4.56c3.29,0,4.87-1.1,5-2.3h-5.4Z"/><path class="cls-2" d="M276.86,13.27V17h-4.94V13.27Z"/><path class="cls-1" d="M309.51,12.1c0,2.81-1.66,4.94-5.48,4.94H288.67V.24h14.72c3.81,0,5,1.82,5,4.34a5,5,0,0,1-1.32,3.2A5.09,5.09,0,0,1,309.51,12.1ZM294,6.48h7.35c.91,0,1.8,0,1.8-1.32s-.89-1.32-1.8-1.32H294Zm10.28,5.28c0-1.32-.89-1.32-1.81-1.32H294V13.1h8.47C303.34,13.1,304.23,13.1,304.23,11.76Z"/><path class="cls-1" d="M326.9,12.14l3,4.9h-6.24l-2.5-4.2h-5.35V17h-5.28V.24h13.2a6,6,0,0,1,6.43,6.29A5.94,5.94,0,0,1,326.9,12.14ZM315.84,8.38h6.72c1,0,2.35,0,2.35-1.85s-1.37-1.83-2.35-1.83h-6.72Z"/><path class="cls-1" d="M336.53,4.34v2.5H349v3.6H336.53v2.5H349V17H331.25V.24H349v4.1Z"/><path class="cls-1" d="M365.83,13.75h-8.66L355.73,17H349.9L357.72.24h7.56l7.8,16.8h-5.81ZM364.15,10l-2.64-6-2.66,6Z"/><path class="cls-1" d="M390.05,4.7h-7.68V17h-5.28V4.7h-7.68V.24h20.64Z"/><path class="cls-1" d="M413.43.24V17h-5.29V10.87H396.38V17H391.1V.24h5.28V6.41h11.76V.24Z"/><path class="cls-1" d="M420.14,17h-5.28V.24h5.28Z"/><path class="cls-1" d="M443.23.24V17h-7L426.86,5.62V17h-5.28V.24h7L438,11.62V.24Z"/><path class="cls-1" d="M454.46,8h10.78V17h-3.38l-.32-2.52c-1.51,1.68-3.88,2.76-7.43,2.76-6.2,0-9.92-2.93-9.92-8.66S447.91,0,454.83,0c6.71,0,10.15,2.5,10.41,6.86h-5.37c-.24-1.05-1.44-2.4-5-2.4-4.66,0-5.36,2.31-5.36,4.32s.72,4.56,5.36,4.56c3.28,0,4.87-1.1,5-2.3h-5.41Z"/><path class="cls-2" d="M471.46,13.27V17h-4.95V13.27Z"/></g></g></svg>